<?xml version="1.0" standalone="no"?><!DOCTYPE svg PUBLIC "-//W3C//DTD SVG 1.1//EN" "http://www.w3.org/Graphics/SVG/1.1/DTD/svg11.dtd"><svg t="1620719612926" class="icon" viewBox="0 0 1024 1024" version="1.1" xmlns="http://www.w3.org/2000/svg" p-id="1447" xmlns:xlink="http://www.w3.org/1999/xlink" width="200" height="200"><defs><style type="text/css"></style></defs><path d="M374.23463511 935.33075608c-52.33104536 0-104.82815691-45.64351523-156.01581416-135.67270655-51.54447513-89.45581415-77.67296954-178.61203595-77.67296953-264.99899189 0-79.67249616 19.70577252-145.7455183 58.56413762-196.38223975 39.81885602-50.36069252 89.68583827-75.90795529 148.18040763-75.9079553 12.87573964 0 27.45029147 1.64270875 43.32980933 4.87763313 15.78750822 3.21697129 32.41320184 9.30643874 49.40693404 18.10233619 18.57360508 10.1861407 34.17709402 17.36738111 46.29319308 21.30247644 12.43701074 4.03944773 21.87697567 5.99745781 28.86858645 5.99745781 8.10021478 0 20.08503177-1.78633355 36.64115714-5.46447512 16.43606399-3.65233399 33.07858865-10.42626343 49.45293885-20.14113522 17.02851633-9.39283805 31.98232742-16.5796888 44.38006575-21.30247645a104.02475564 104.02475564 0 0 1 37.41089634-6.96243698c41.01946964 0 78.44831909 11.28801228 111.26434363 33.5442472 16.95894806 11.30035503 34.44639053 28.04162174 52.02584265 49.79180364-26.37983783 23.13593688-45.97676967 43.7662941-58.2881087 61.34574622-23.63525751 33.93023887-35.61895245 71.42192417-35.61895245 111.43489809 0.01122069 44.19155818 12.59858865 84.7049748 37.42211703 120.42042517 24.05491124 34.02224852 51.92934473 56.72057856 82.92873987 67.53956607-13.67801885 41.10474688-35.24418146 84.46260794-64.13072102 128.94590401-45.19019943 68.09499013-90.17393819 102.62890204-133.67430199 102.62890204-16.32722332 0-41.03630068-5.67654613-73.4326715-16.87367084-30.67287311-11.43275915-57.94363358-17.24058733-80.98756081-17.24058733-23.12920447 0-48.95249616 6.13547228-76.75287311 18.23361823-28.08089414 11.12306816-51.53213237 16.78166119-69.59519614 16.78166119zM503.33762875 258.02533421c1.19500329-50.1710629 14.85058076-94.18309007 40.62337935-130.853421 25.83451238-36.74550953 68.74354591-62.60358535 127.56127111-76.87966688 0.82135437 3.99232084 1.45868947 6.96804733 1.9355687 8.93391191v9.46689457c0 21.03879027-5.06053036 45.11053254-15.04582074 71.54310761-10.50705238 25.69088757-26.87467017 49.79180363-48.60802104 71.54198554-20.43511724 19.25694498-39.36441814 31.99915845-56.19769449 37.81371905-5.67654613 1.69993426-13.23031339 3.33254438-22.33029148 4.79123382a547.64812624 547.64812624 0 0 1-27.93839141 3.64223538z" fill="#13227a" p-id="1448"></path></svg>